<svg xmlns="http://www.w3.org/2000/svg" xmlns:xlink="http://www.w3.org/1999/xlink" id="Layer_1" x="0" y="0" version="1.1" viewBox="0 0 100 100" xml:space="preserve" style="enable-background:new 0 0 100 100"><style type="text/css">.avatar2{opacity:.3;fill:#ccc;enable-background:new}.avatar3{fill:#fff}.avatar4{fill:#404647}</style><g><path d="M50,1.5C76.5,1.5,98.5,23,98.5,50C98.5,76.5,77,98.5,50,98.5C23.5,98.5,1.5,77,1.5,50 C1.5,23.5,23.5,1.5,50,1.5" class="avatar2"/><path d="M75,78.5C63.5,74.5,60,71,60,63c0-4.5,3.5-3,5-11.5c0.5-3.5,3.5,0,4.5-8c0-1.5-0.5-3-1.5-4c0,0,1-4.5,1-8 c0.5-3.5-2.5-16-18.5-16S31.5,27,32,31.5c0,4.5,0.5,8.5,0.5,8.5c-1,0.5-2,2-1.5,4c0.5,8,3.5,4.5,4.5,8c1.5,8.5,5,7,5,11.5 c0,7.5-3.5,11-15,15.5c-4,1.5-7.5,3-10.5,4.5C24,93,36.5,99,50.5,99S77,93,86,83.5C82.5,81.5,79,80,75,78.5z M49,63.5 c-2.5,0-4.5-2-4.5-5c0-2.5,2-4.5,4.5-4.5s4.5,2,4.5,4.5C53.5,61.5,51.5,63.5,49,63.5z M52.5,48v1.5H45v-2c0-9,8.5-8.5,8.5-13 c0-2-1.5-3-3.5-3C47.5,32,45.5,33,43.5,35L38,31c3-3.5,7-6,12.5-6C58,25,62,29,62,34C62,42.5,52.5,42,52.5,48z" class="avatar3"/><g><path d="M50,100C22.5,100,0,77.5,0,50S22.5,0,50,0s50,22.5,50,50S77.5,100,50,100z M50,3C24,3,3,24,3,50s21,47,47,47 s47-21,47-47S76,3,50,3z" class="avatar4"/></g></g></svg>