<svg xmlns="http://www.w3.org/2000/svg" xmlns:xlink="http://www.w3.org/1999/xlink" id="Layer_1" x="0" y="0" version="1.1" viewBox="0 0 20 20" xml:space="preserve" style="enable-background:new 0 0 20 20"><style type="text/css">.remove0{fill:#aaa}.remove1{fill:#fff}</style><g><g><path d="M2.9,2.9C-1,6.8-1,13.2,2.9,17.1c3.9,3.9,10.2,3.9,14.1,0c3.9-3.9,3.9-10.2,0-14.1C13.2-1,6.8-1,2.9,2.9z M11.7,10l3.4,3.4l-1.7,1.7L10,11.7l-3.4,3.4l-1.7-1.7L8.3,10L4.9,6.6l1.7-1.7L10,8.3l3.4-3.4l1.7,1.7L11.7,10z" class="remove0"/></g><g><path d="M11.7,10l3.4,3.4l-1.7,1.7L10,11.7l-3.4,3.4l-1.7-1.7L8.3,10L4.9,6.6l1.7-1.7L10,8.3l3.4-3.4l1.7,1.7L11.7,10 z" class="remove1"/></g></g></svg>